<svg width="24" height="24" viewBox="0 0 24 24" fill="none" xmlns="http://www.w3.org/2000/svg">
<path d="M4.00488 5.00281V19.0028H20.0049V5.00281H4.00488ZM3.00488 3.00281H21.0049C21.5572 3.00281 22.0049 3.45052 22.0049 4.00281V20.0028C22.0049 20.5551 21.5572 21.0028 21.0049 21.0028H3.00488C2.4526 21.0028 2.00488 20.5551 2.00488 20.0028V4.00281C2.00488 3.45052 2.4526 3.00281 3.00488 3.00281ZM15.0049 7.00281L18.5049 10.0028L15.0049 13.0028V11.0028H11.0049V9.00281H15.0049V7.00281ZM9.00488 17.0028L5.50488 14.0028L9.00488 11.0028V13.0028H13.0049V15.0028H9.00488V17.0028Z" fill="#7C54F1"/>
</svg>
