<svg xmlns="http://www.w3.org/2000/svg" width="20" height="21" viewBox="0 0 20 21" fill="none">
    <path d="M18.3376 6.33315H19.1709V14.6665H18.3376V17.1665C18.3376 17.6267 17.9645 17.9998 17.5042 17.9998H2.50423C2.044 17.9998 1.6709 17.6267 1.6709 17.1665V3.83315C1.6709 3.37291 2.044 2.99982 2.50423 2.99982H17.5042C17.9645 2.99982 18.3376 3.37291 18.3376 3.83315V6.33315ZM16.6709 14.6665H11.6709C9.36975 14.6665 7.50423 12.801 7.50423 10.4998C7.50423 8.19862 9.36975 6.33315 11.6709 6.33315H16.6709V4.66648H3.33757V16.3332H16.6709V14.6665ZM17.5042 12.9998V7.99982H11.6709C10.2902 7.99982 9.17092 9.11907 9.17092 10.4998C9.17092 11.8805 10.2902 12.9998 11.6709 12.9998H17.5042ZM11.6709 9.66649H14.1709V11.3332H11.6709V9.66649Z" fill="#7C54F1"/>
</svg>
