<svg width="24" height="24" viewBox="0 0 24 24" fill="none" xmlns="http://www.w3.org/2000/svg">
    <path d="M10.802 17.7698C10.8943 17.77 10.9857 17.7883 11.0709 17.8237C11.1562 17.8592 11.2336 17.9111 11.2988 17.9764C11.364 18.0418 11.4157 18.1194 11.4509 18.2047C11.4861 18.2901 11.5041 18.3815 11.504 18.4738C11.5039 18.5661 11.4856 18.6575 11.4501 18.7428C11.4147 18.828 11.3628 18.9054 11.2974 18.9706C11.232 19.0358 11.1544 19.0875 11.0691 19.1227C10.9838 19.1579 10.8923 19.176 10.8 19.1758C10.6135 19.1756 10.4348 19.1012 10.3032 18.9692C10.1715 18.8372 10.0977 18.6583 10.098 18.4718C10.0983 18.2854 10.1726 18.1067 10.3046 17.975C10.4366 17.8434 10.6155 17.7696 10.802 17.7698ZM21.826 13.4228C21.7337 13.4228 21.6423 13.4045 21.557 13.3691C21.4717 13.3337 21.3943 13.2819 21.329 13.2166C21.2638 13.1512 21.2121 13.0737 21.1768 12.9884C21.1415 12.9031 21.1234 12.8116 21.1235 12.7193C21.1236 12.627 21.1418 12.5356 21.1772 12.4503C21.2126 12.3651 21.2644 12.2876 21.3298 12.2224C21.3951 12.1571 21.4726 12.1054 21.5579 12.0701C21.6432 12.0349 21.7347 12.0168 21.827 12.0168C22.0134 12.017 22.1922 12.0911 22.3239 12.2231C22.4557 12.355 22.5296 12.5339 22.5295 12.7203C22.5294 12.9068 22.4552 13.0855 22.3232 13.2173C22.1913 13.349 22.0124 13.423 21.826 13.4228ZM21.826 10.5468C21.2496 10.5473 20.6969 10.7766 20.2893 11.1842C19.8817 11.5917 19.6525 12.1444 19.652 12.7208C19.652 12.9538 19.691 13.1858 19.767 13.4118L12.586 17.2348C12.3869 16.9457 12.1204 16.7093 11.8097 16.5461C11.4989 16.3829 11.153 16.2977 10.802 16.2978C9.973 16.2978 9.218 16.7728 8.852 17.5138L2.401 14.1118C1.719 13.7538 1.209 12.6318 1.263 11.6098C1.291 11.0768 1.475 10.6628 1.756 10.5028C1.934 10.4028 2.148 10.4108 2.376 10.5298L2.418 10.5528C4.128 11.4528 9.722 14.3998 9.958 14.5088C10.321 14.6778 10.523 14.7458 11.143 14.4518L22.707 8.43782C22.877 8.37382 23.075 8.21082 23.075 7.96382C23.075 7.62182 22.721 7.48682 22.72 7.48682C22.062 7.17182 21.051 6.69882 20.065 6.23682C17.957 5.24982 15.568 4.13182 14.519 3.58182C13.613 3.10782 12.884 3.50782 12.754 3.58782L12.502 3.71282C7.78 6.04782 1.46 9.17782 1.1 9.39682C0.456997 9.78882 0.0579969 10.5698 0.00599688 11.5388C-0.0740031 13.0758 0.708997 14.6788 1.83 15.2658L8.652 18.7838C8.72715 19.3006 8.98572 19.7731 9.38047 20.115C9.77522 20.4568 10.2798 20.6453 10.802 20.6458C11.3723 20.6449 11.9195 20.4201 12.3259 20.0199C12.7322 19.6197 12.9653 19.0761 12.975 18.5058L20.489 14.4328C20.869 14.7308 21.342 14.8938 21.826 14.8938C22.4024 14.8933 22.9551 14.6641 23.3627 14.2565C23.7702 13.8489 23.9995 13.2962 24 12.7198C23.9995 12.1434 23.7702 11.5907 23.3627 11.1832C22.9551 10.7756 22.4024 10.5463 21.826 10.5458" fill="#87868C"/>
</svg>
